<svg width="29" height="29" viewBox="0 0 29 29" fill="none" xmlns="http://www.w3.org/2000/svg">
<path d="M28.6465 26.9382L20.3993 18.6909C21.9983 16.7189 22.9576 14.2111 22.9576 11.4788C22.9576 5.15032 17.8073 0 11.4788 0C5.1503 0 0 5.15032 0 11.4788C0 17.8073 5.1503 22.9576 11.4788 22.9576C14.211 22.9576 16.7161 21.9955 18.6909 20.3993L26.9382 28.6465C27.1738 28.8822 27.4824 29 27.7938 29C28.1023 29 28.4137 28.8822 28.6494 28.6465C29.1178 28.1753 29.1178 27.4095 28.6465 26.9382ZM11.4788 20.5424C6.47995 20.5424 2.41526 16.4777 2.41526 11.4788C2.41526 6.47998 6.47995 2.41526 11.4788 2.41526C16.4776 2.41526 20.5424 6.47998 20.5424 11.4788C20.5424 16.4777 16.4748 20.5424 11.4788 20.5424Z" fill="#57D6E7"/>
</svg>
