<svg width="24" height="23" viewBox="0 0 24 23" fill="none" xmlns="http://www.w3.org/2000/svg">
<path d="M17.5048 0C16.3788 0.0175149 15.2773 0.331853 14.3116 0.911271C13.3459 1.49069 12.5502 2.31467 12.0048 3.3C11.4595 2.31467 10.6638 1.49069 9.69808 0.911271C8.73238 0.331853 7.63089 0.0175149 6.50484 0C4.70978 0.0779907 3.01855 0.863254 1.80062 2.18423C0.582701 3.50521 -0.0629094 5.25453 0.0048411 7.05C0.0048411 13.825 10.9608 21.65 11.4268 21.982L12.0048 22.391L12.5828 21.982C13.0488 21.652 24.0048 13.825 24.0048 7.05C24.0726 5.25453 23.427 3.50521 22.2091 2.18423C20.9911 0.863254 19.2999 0.0779907 17.5048 0ZM12.0048 19.929C8.75184 17.499 2.00484 11.529 2.00484 7.05C1.93648 5.78472 2.37121 4.54373 3.2142 3.5977C4.0572 2.65167 5.24008 2.07735 6.50484 2C7.76961 2.07735 8.95248 2.65167 9.79548 3.5977C10.6385 4.54373 11.0732 5.78472 11.0048 7.05H13.0048C12.9365 5.78472 13.3712 4.54373 14.2142 3.5977C15.0572 2.65167 16.2401 2.07735 17.5048 2C18.7696 2.07735 19.9525 2.65167 20.7955 3.5977C21.6385 4.54373 22.0732 5.78472 22.0048 7.05C22.0048 11.531 15.2578 17.499 12.0048 19.929Z" fill="#222222"/>
</svg>
